<svg width="1290" height="2796" viewBox="0 0 1290 2796" fill="none" xmlns="http://www.w3.org/2000/svg">
  <defs>
    <linearGradient id="bg" x1="80" y1="0" x2="1200" y2="2796" gradientUnits="userSpaceOnUse">
      <stop stop-color="#87EF58"/>
      <stop offset="0.45" stop-color="#25B55A"/>
      <stop offset="1" stop-color="#057B4A"/>
    </linearGradient>
    <radialGradient id="glow" cx="0" cy="0" r="1" gradientUnits="userSpaceOnUse" gradientTransform="translate(980 520) rotate(111) scale(760 650)">
      <stop stop-color="#D5FF83" stop-opacity="0.7"/>
      <stop offset="1" stop-color="#D5FF83" stop-opacity="0"/>
    </radialGradient>
  </defs>
  <rect width="1290" height="2796" fill="url(#bg)"/>
  <rect width="1290" height="2796" fill="url(#glow)"/>

  <g transform="translate(362 1030)">
    <path d="M88 200H492L454 416H170L138 260H88" stroke="#FFFFFF" stroke-width="24" stroke-linecap="round" stroke-linejoin="round"/>
    <path d="M112 500C198 462 292 462 388 496" stroke="#D7FFD5" stroke-width="18" stroke-linecap="round"/>
    <path d="M176 262H420" stroke="#D7FFD5" stroke-width="14" stroke-linecap="round"/>
    <path d="M188 316H406" stroke="#D7FFD5" stroke-width="14" stroke-linecap="round"/>
    <circle cx="232" cy="520" r="20" fill="#FFFFFF"/>
    <circle cx="362" cy="520" r="20" fill="#FFFFFF"/>
    <ellipse cx="236" cy="130" rx="34" ry="26" fill="#F2624A"/>
    <ellipse cx="300" cy="122" rx="34" ry="26" fill="#FFAA33"/>
    <ellipse cx="360" cy="112" rx="26" ry="20" fill="#95FA6E"/>
  </g>

  <text x="645" y="1832" text-anchor="middle" font-family="Poppins, Inter, Arial, sans-serif" font-size="156" font-weight="700" font-style="italic" fill="#F6FFF5">Fresh</text>
  <text x="645" y="1986" text-anchor="middle" font-family="Poppins, Inter, Arial, sans-serif" font-size="156" font-weight="700" font-style="italic" fill="#FFAE36">Flow</text>
  <text x="645" y="2078" text-anchor="middle" font-family="Inter, Arial, sans-serif" font-size="54" font-style="italic" fill="#E6F8EA">Smart Grocery, Smarter Life</text>
</svg>
