<svg width="1080" height="1350" viewBox="0 0 1080 1350" fill="none" xmlns="http://www.w3.org/2000/svg">
  <defs>
    <linearGradient id="promoBg" x1="0" y1="0" x2="1080" y2="1350" gradientUnits="userSpaceOnUse">
      <stop stop-color="#F5FFF6"/>
      <stop offset="1" stop-color="#E5FAEB"/>
    </linearGradient>
    <linearGradient id="phoneBg" x1="352" y1="304" x2="728" y2="1046" gradientUnits="userSpaceOnUse">
      <stop stop-color="#55D364"/>
      <stop offset="1" stop-color="#0A9A5D"/>
    </linearGradient>
    <linearGradient id="promoCta" x1="312" y1="1140" x2="772" y2="1220" gradientUnits="userSpaceOnUse">
      <stop stop-color="#49CB59"/>
      <stop offset="1" stop-color="#0B985E"/>
    </linearGradient>
  </defs>

  <rect width="1080" height="1350" fill="url(#promoBg)"/>
  <circle cx="996" cy="86" r="180" fill="#D7F6E1"/>

  <text x="120" y="170" font-family="Poppins, Inter, Arial, sans-serif" font-size="94" font-weight="700" fill="#143425">FreshFlow</text>
  <text x="120" y="235" font-family="Inter, Arial, sans-serif" font-size="44" font-weight="500" fill="#3A5A49">All your daily essentials, delivered fast.</text>

  <rect x="316" y="300" width="448" height="790" rx="64" fill="#1A1A1A"/>
  <rect x="336" y="324" width="408" height="742" rx="46" fill="url(#phoneBg)"/>

  <text x="404" y="432" font-family="Poppins, Inter, Arial, sans-serif" font-size="54" font-weight="700" fill="#FFFFFF">FreshFlow</text>
  <rect x="372" y="500" width="336" height="84" rx="22" fill="#FFFFFF" fill-opacity="0.2"/>
  <rect x="372" y="610" width="336" height="84" rx="22" fill="#FFFFFF" fill-opacity="0.2"/>
  <rect x="372" y="720" width="336" height="84" rx="22" fill="#FFFFFF" fill-opacity="0.2"/>

  <circle cx="404" cy="542" r="14" fill="#FFFFFF"/>
  <circle cx="404" cy="652" r="14" fill="#FFFFFF"/>
  <circle cx="404" cy="762" r="14" fill="#FFFFFF"/>

  <text x="436" y="550" font-family="Inter, Arial, sans-serif" font-size="28" font-weight="600" fill="#FFFFFF">Fresh produce</text>
  <text x="436" y="660" font-family="Inter, Arial, sans-serif" font-size="28" font-weight="600" fill="#FFFFFF">Fast checkout</text>
  <text x="436" y="770" font-family="Inter, Arial, sans-serif" font-size="28" font-weight="600" fill="#FFFFFF">Live tracking</text>

  <rect x="312" y="1130" width="456" height="100" rx="28" fill="url(#promoCta)"/>
  <text x="410" y="1193" font-family="Inter, Arial, sans-serif" font-size="42" font-weight="700" fill="#FFFFFF">Download App</text>
</svg>
